<mxfile host="app.diagrams.net" modified="2023-06-22T18:30:29.162Z" agent="Mozilla/5.0 (Windows NT 10.0; Win64; x64) AppleWebKit/537.36 (KHTML, like Gecko) Chrome/114.0.0.0 Safari/537.36" etag="GIW2rYg7f7kqDJ_TlAec" version="21.5.0" type="device">
  <diagram name="Page-1" id="yanjH61RsJscHlMCIo1z">
    <mxGraphModel dx="880" dy="452" grid="1" gridSize="10" guides="1" tooltips="1" connect="1" arrows="1" fold="1" page="1" pageScale="1" pageWidth="850" pageHeight="1100" background="#ffffff" math="0" shadow="0">
      <root>
        <mxCell id="0" />
        <mxCell id="1" parent="0" />
        <mxCell id="MhemQ_llx7RlorepLTpd-19" value="&lt;b&gt;&lt;font style=&quot;font-size: 18px;&quot;&gt;Component Diagram&lt;/font&gt;&lt;/b&gt;" style="text;html=1;align=center;verticalAlign=middle;resizable=0;points=[];autosize=1;strokeColor=none;fillColor=none;" parent="1" vertex="1">
          <mxGeometry x="175" y="150" width="200" height="40" as="geometry" />
        </mxCell>
        <mxCell id="DrvZPB6PU7hmruSs7pDp-1" value="Customer" style="shape=module;align=left;spacingLeft=20;align=center;verticalAlign=top;whiteSpace=wrap;html=1;" vertex="1" parent="1">
          <mxGeometry x="370" y="360" width="100" height="50" as="geometry" />
        </mxCell>
      </root>
    </mxGraphModel>
  </diagram>
</mxfile>
